<svg width="406" height="80" viewBox="0 0 406 80" fill="none" xmlns="http://www.w3.org/2000/svg">
<rect x="12" y="2" width="382" height="56" rx="12" fill="#29A6A1"/>
<g filter="url(#filter0_dd_71_1289)">
<rect x="12" y="2" width="382" height="56" rx="12" fill="white" fill-opacity="0.01" shape-rendering="crispEdges"/>
</g>
<path d="M179.638 36.716C178.726 36.716 177.91 36.56 177.19 36.248C176.482 35.936 175.918 35.48 175.498 34.88C175.09 34.28 174.88 33.554 174.868 32.702H177.442C177.454 33.074 177.55 33.41 177.73 33.71C177.91 34.01 178.156 34.25 178.468 34.43C178.792 34.598 179.176 34.682 179.62 34.682C180.004 34.682 180.334 34.622 180.61 34.502C180.898 34.37 181.12 34.19 181.276 33.962C181.432 33.734 181.51 33.464 181.51 33.152C181.51 32.792 181.42 32.492 181.24 32.252C181.072 32.012 180.832 31.808 180.52 31.64C180.22 31.472 179.866 31.322 179.458 31.19C179.062 31.046 178.642 30.896 178.198 30.74C177.202 30.416 176.44 29.984 175.912 29.444C175.396 28.904 175.138 28.19 175.138 27.302C175.138 26.546 175.318 25.898 175.678 25.358C176.05 24.818 176.56 24.404 177.208 24.116C177.856 23.828 178.594 23.684 179.422 23.684C180.274 23.684 181.018 23.834 181.654 24.134C182.302 24.422 182.812 24.842 183.184 25.394C183.568 25.946 183.766 26.594 183.778 27.338H181.186C181.174 27.062 181.09 26.804 180.934 26.564C180.79 26.312 180.586 26.114 180.322 25.97C180.058 25.814 179.746 25.736 179.386 25.736C179.074 25.724 178.786 25.772 178.522 25.88C178.27 25.988 178.066 26.15 177.91 26.366C177.766 26.57 177.694 26.828 177.694 27.14C177.694 27.44 177.766 27.692 177.91 27.896C178.066 28.1 178.276 28.28 178.54 28.436C178.804 28.58 179.116 28.718 179.476 28.85C179.836 28.97 180.226 29.096 180.646 29.228C181.27 29.444 181.846 29.702 182.374 30.002C182.902 30.29 183.322 30.668 183.634 31.136C183.946 31.604 184.102 32.222 184.102 32.99C184.102 33.65 183.928 34.262 183.58 34.826C183.232 35.39 182.728 35.846 182.068 36.194C181.42 36.542 180.61 36.716 179.638 36.716ZM186.163 36.5V27.428H188.593V36.5H186.163ZM187.387 26.186C186.955 26.186 186.595 26.06 186.307 25.808C186.031 25.544 185.893 25.214 185.893 24.818C185.893 24.422 186.031 24.098 186.307 23.846C186.595 23.582 186.955 23.45 187.387 23.45C187.831 23.45 188.191 23.582 188.467 23.846C188.755 24.098 188.899 24.422 188.899 24.818C188.899 25.214 188.755 25.544 188.467 25.808C188.191 26.06 187.831 26.186 187.387 26.186ZM194.954 40.676C194.09 40.676 193.334 40.568 192.686 40.352C192.038 40.148 191.534 39.83 191.174 39.398C190.826 38.978 190.652 38.456 190.652 37.832C190.652 37.412 190.76 37.016 190.976 36.644C191.192 36.272 191.504 35.936 191.912 35.636C192.332 35.324 192.854 35.06 193.478 34.844L194.396 36.032C193.844 36.212 193.442 36.434 193.19 36.698C192.95 36.974 192.83 37.268 192.83 37.58C192.83 37.856 192.92 38.09 193.1 38.282C193.292 38.474 193.544 38.612 193.856 38.696C194.18 38.792 194.54 38.84 194.936 38.84C195.32 38.84 195.65 38.792 195.926 38.696C196.214 38.6 196.436 38.456 196.592 38.264C196.76 38.084 196.844 37.868 196.844 37.616C196.844 37.292 196.73 37.028 196.502 36.824C196.274 36.62 195.818 36.494 195.134 36.446C194.522 36.398 193.976 36.332 193.496 36.248C193.028 36.152 192.614 36.044 192.254 35.924C191.894 35.792 191.588 35.648 191.336 35.492C191.096 35.336 190.898 35.18 190.742 35.024V34.61L192.668 32.54L194.414 33.098L192.146 35.33L192.83 34.142C192.962 34.214 193.088 34.286 193.208 34.358C193.34 34.418 193.502 34.478 193.694 34.538C193.886 34.586 194.138 34.634 194.45 34.682C194.762 34.73 195.158 34.772 195.638 34.808C196.43 34.88 197.078 35.03 197.582 35.258C198.098 35.486 198.476 35.792 198.716 36.176C198.956 36.548 199.076 37.01 199.076 37.562C199.076 38.102 198.926 38.606 198.626 39.074C198.338 39.554 197.888 39.938 197.276 40.226C196.664 40.526 195.89 40.676 194.954 40.676ZM194.954 33.818C194.198 33.818 193.544 33.674 192.992 33.386C192.452 33.086 192.032 32.69 191.732 32.198C191.444 31.694 191.3 31.136 191.3 30.524C191.3 29.912 191.444 29.36 191.732 28.868C192.032 28.364 192.452 27.962 192.992 27.662C193.544 27.362 194.198 27.212 194.954 27.212C195.722 27.212 196.376 27.362 196.916 27.662C197.468 27.962 197.888 28.364 198.176 28.868C198.464 29.36 198.608 29.912 198.608 30.524C198.608 31.136 198.464 31.694 198.176 32.198C197.888 32.69 197.468 33.086 196.916 33.386C196.376 33.674 195.722 33.818 194.954 33.818ZM194.954 31.964C195.422 31.964 195.8 31.844 196.088 31.604C196.376 31.364 196.52 31.01 196.52 30.542C196.52 30.074 196.376 29.72 196.088 29.48C195.8 29.228 195.422 29.102 194.954 29.102C194.498 29.102 194.12 29.228 193.82 29.48C193.532 29.72 193.388 30.074 193.388 30.542C193.388 31.01 193.532 31.364 193.82 31.604C194.12 31.844 194.498 31.964 194.954 31.964ZM196.466 29.156L196.07 27.428H199.796V28.868L196.466 29.156ZM201.771 36.5V27.428H203.913L204.093 28.904C204.369 28.4 204.759 27.992 205.263 27.68C205.779 27.368 206.391 27.212 207.099 27.212C207.855 27.212 208.491 27.368 209.007 27.68C209.523 27.992 209.913 28.448 210.177 29.048C210.453 29.648 210.591 30.386 210.591 31.262V36.5H208.179V31.496C208.179 30.776 208.023 30.224 207.711 29.84C207.411 29.456 206.943 29.264 206.307 29.264C205.899 29.264 205.533 29.36 205.209 29.552C204.897 29.744 204.651 30.02 204.471 30.38C204.291 30.728 204.201 31.154 204.201 31.658V36.5H201.771ZM217.171 36.5V23.9H219.601V36.5H217.171ZM222.021 36.5V27.428H224.163L224.343 28.904C224.619 28.4 225.009 27.992 225.513 27.68C226.029 27.368 226.641 27.212 227.349 27.212C228.105 27.212 228.741 27.368 229.257 27.68C229.773 27.992 230.163 28.448 230.427 29.048C230.703 29.648 230.841 30.386 230.841 31.262V36.5H228.429V31.496C228.429 30.776 228.273 30.224 227.961 29.84C227.661 29.456 227.193 29.264 226.557 29.264C226.149 29.264 225.783 29.36 225.459 29.552C225.147 29.744 224.901 30.02 224.721 30.38C224.541 30.728 224.451 31.154 224.451 31.658V36.5H222.021Z" fill="white"/>
<defs>
<filter id="filter0_dd_71_1289" x="0" y="0" width="406" height="80" filterUnits="userSpaceOnUse" color-interpolation-filters="sRGB">
<feFlood flood-opacity="0" result="BackgroundImageFix"/>
<feColorMatrix in="SourceAlpha" type="matrix" values="0 0 0 0 0 0 0 0 0 0 0 0 0 0 0 0 0 0 127 0" result="hardAlpha"/>
<feMorphology radius="4" operator="erode" in="SourceAlpha" result="effect1_dropShadow_71_1289"/>
<feOffset dy="4"/>
<feGaussianBlur stdDeviation="3"/>
<feComposite in2="hardAlpha" operator="out"/>
<feColorMatrix type="matrix" values="0 0 0 0 0.0431373 0 0 0 0 0.854902 0 0 0 0 0.313726 0 0 0 0.2 0"/>
<feBlend mode="normal" in2="BackgroundImageFix" result="effect1_dropShadow_71_1289"/>
<feColorMatrix in="SourceAlpha" type="matrix" values="0 0 0 0 0 0 0 0 0 0 0 0 0 0 0 0 0 0 127 0" result="hardAlpha"/>
<feMorphology radius="3" operator="erode" in="SourceAlpha" result="effect2_dropShadow_71_1289"/>
<feOffset dy="10"/>
<feGaussianBlur stdDeviation="7.5"/>
<feComposite in2="hardAlpha" operator="out"/>
<feColorMatrix type="matrix" values="0 0 0 0 0.0431373 0 0 0 0 0.854902 0 0 0 0 0.313726 0 0 0 0.2 0"/>
<feBlend mode="normal" in2="effect1_dropShadow_71_1289" result="effect2_dropShadow_71_1289"/>
<feBlend mode="normal" in="SourceGraphic" in2="effect2_dropShadow_71_1289" result="shape"/>
</filter>
</defs>
</svg>
