<svg width="22" height="22" viewBox="0 0 22 22" fill="none" xmlns="http://www.w3.org/2000/svg">
<rect x="1" y="1" width="19.3333" height="19.3333" rx="9.66667" fill="#3B82F6"/>
<rect x="1" y="1" width="19.3333" height="19.3333" rx="9.66667" stroke="#10221D" stroke-width="2"/>
<path d="M15.3333 6V9.5H14.1667V7.99792L11.8479 10.3021C12.0326 10.5743 12.1736 10.8635 12.2708 11.1698C12.3681 11.476 12.4167 11.7944 12.4167 12.125C12.4167 13.0194 12.1056 13.7778 11.4833 14.4C10.8611 15.0222 10.1028 15.3333 9.20833 15.3333C8.31389 15.3333 7.55556 15.0222 6.93333 14.4C6.31111 13.7778 6 13.0194 6 12.125C6 11.2306 6.31111 10.4722 6.93333 9.85C7.55556 9.22778 8.31389 8.91667 9.20833 8.91667C9.52917 8.91667 9.84514 8.96285 10.1562 9.05521C10.4674 9.14757 10.7542 9.29097 11.0167 9.48542L13.3354 7.16667H11.8333V6H15.3333ZM9.20833 10.0833C8.64444 10.0833 8.16319 10.2826 7.76458 10.6813C7.36597 11.0799 7.16667 11.5611 7.16667 12.125C7.16667 12.6889 7.36597 13.1701 7.76458 13.5687C8.16319 13.9674 8.64444 14.1667 9.20833 14.1667C9.77222 14.1667 10.2535 13.9674 10.6521 13.5687C11.0507 13.1701 11.25 12.6889 11.25 12.125C11.25 11.5611 11.0507 11.0799 10.6521 10.6813C10.2535 10.2826 9.77222 10.0833 9.20833 10.0833Z" fill="white"/>
</svg>
