<svg width="19" height="22" viewBox="0 0 19 22" fill="none" xmlns="http://www.w3.org/2000/svg">
<rect x="1" y="1" width="16.4167" height="19.9167" rx="8.20833" fill="#EC4899"/>
<rect x="1" y="1" width="16.4167" height="19.9167" rx="8.20833" stroke="#10221D" stroke-width="2"/>
<path d="M8.625 15.9167V14.75H7.45833V13.5833H8.625V12.3583C7.85694 12.2222 7.22743 11.8552 6.73646 11.2573C6.24549 10.6594 6 9.96667 6 9.17917C6 8.29444 6.31354 7.5434 6.94063 6.92604C7.56771 6.30868 8.32361 6 9.20833 6C10.0931 6 10.849 6.30868 11.476 6.92604C12.1031 7.5434 12.4167 8.29444 12.4167 9.17917C12.4167 9.96667 12.1712 10.6594 11.6802 11.2573C11.1892 11.8552 10.5597 12.2222 9.79167 12.3583V13.5833H10.9583V14.75H9.79167V15.9167H8.625ZM9.20833 11.25C9.77222 11.25 10.2535 11.0507 10.6521 10.6521C11.0507 10.2535 11.25 9.77222 11.25 9.20833C11.25 8.64444 11.0507 8.16319 10.6521 7.76458C10.2535 7.36597 9.77222 7.16667 9.20833 7.16667C8.64444 7.16667 8.16319 7.36597 7.76458 7.76458C7.36597 8.16319 7.16667 8.64444 7.16667 9.20833C7.16667 9.77222 7.36597 10.2535 7.76458 10.6521C8.16319 11.0507 8.64444 11.25 9.20833 11.25Z" fill="white"/>
</svg>
